<?xml version="1.0" standalone="no"?>
<!DOCTYPE svg PUBLIC "-//W3C//DTD SVG 20010904//EN"
 "http://www.w3.org/TR/2001/REC-SVG-20010904/DTD/svg10.dtd">
<svg version="1.0" xmlns="http://www.w3.org/2000/svg"
 width="300.000000pt" height="300.000000pt" viewBox="0 0 300.000000 300.000000"
 preserveAspectRatio="xMidYMid meet">

<g transform="translate(0.000000,300.000000) scale(0.100000,-0.100000)"
fill="#000000" stroke="none">
<path d="M941 2693 c-14 -13 -27 -49 -44 -123 l-23 -104 -92 -30 -92 -30 0
-137 0 -136 138 -6 c255 -11 447 -60 641 -163 l104 -55 -7 42 c-4 23 -16 64
-28 92 -18 42 -33 57 -92 95 -129 82 -288 141 -425 157 -86 10 -61 22 60 31
229 16 455 -66 626 -229 128 -122 202 -244 245 -406 27 -103 28 -287 2 -386
-18 -65 -21 -70 -44 -67 -86 11 -158 6 -193 -13 -21 -11 -35 -25 -33 -31 14
-36 17 -129 6 -174 -16 -69 -70 -127 -126 -135 -38 -7 -40 -9 -56 -64 -31
-103 -127 -176 -273 -207 -75 -16 -139 -17 -185 -3 -19 6 -78 14 -130 19 -67
5 -113 15 -157 34 -34 14 -65 26 -68 26 -3 0 -5 -22 -5 -50 0 -47 2 -50 38
-69 20 -10 62 -26 92 -36 l56 -17 22 -105 c14 -70 28 -110 39 -119 14 -10 63
-13 194 -14 217 0 209 -5 239 135 11 55 24 103 28 107 4 4 32 16 62 26 l55 19
85 -74 c47 -40 94 -73 105 -73 26 0 286 191 296 217 5 14 -7 52 -38 121 l-46
102 37 52 36 53 115 -9 c96 -8 119 -7 130 5 8 8 38 88 67 178 l52 164 -32 27
c-17 14 -65 44 -107 66 l-75 39 0 66 0 65 100 58 c87 50 100 61 100 84 0 36
-98 328 -115 342 -9 8 -43 8 -126 -1 l-112 -13 -34 40 c-18 21 -35 46 -38 56
-3 9 12 58 35 110 22 51 40 102 40 114 0 15 -34 44 -127 110 -69 49 -139 95
-155 103 -32 17 -29 19 -143 -83 l-66 -59 -61 19 -61 20 -18 79 c-32 137 -37
152 -62 159 -12 3 -92 6 -178 6 -135 0 -160 -2 -178 -17z"/>
<path d="M690 2075 c0 -27 -5 -25 155 -45 50 -6 137 -22 193 -36 57 -14 105
-24 106 -22 38 58 38 58 14 67 -66 25 -309 57 -455 61 -7 0 -13 -11 -13 -25z"/>
<path d="M1588 1998 c10 -27 16 -76 16 -130 l0 -86 74 -33 c94 -41 132 -78
132 -128 0 -20 -5 -42 -11 -48 -18 -18 6 -24 29 -7 37 25 55 74 55 140 -1 123
-77 230 -212 297 -97 48 -103 48 -83 -5z"/>
<path d="M690 1990 c0 -35 -5 -33 120 -55 79 -14 193 -40 260 -60 12 -4 15 4
15 35 0 38 -2 41 -36 50 -33 9 -217 41 -316 54 -42 6 -43 6 -43 -24z"/>
<path d="M1234 2006 c-20 -9 -35 -25 -42 -45 -29 -83 72 -148 133 -86 65 64
-7 167 -91 131z m94 -49 c4 -20 -25 -34 -40 -19 -15 15 -1 44 19 40 10 -2 19
-11 21 -21z"/>
<path d="M1394 1942 c10 -17 -23 -85 -52 -107 -35 -26 -108 -27 -146 -2 -15
10 -37 39 -49 65 l-21 47 -4 -34 c-5 -49 4 -76 39 -116 l31 -35 102 6 c90 6
163 -1 238 -22 20 -6 42 54 36 101 -3 25 -12 34 -68 61 -79 38 -115 50 -106
36z"/>
<path d="M690 1881 c0 -28 5 -40 18 -44 263 -80 408 -114 439 -102 14 5 14 8
-4 28 -10 12 -27 34 -36 48 -13 22 -32 30 -104 48 -69 17 -294 61 -310 61 -2
0 -3 -17 -3 -39z"/>
<path d="M685 1768 c-3 -18 -2 -51 2 -73 l9 -40 169 4 c153 3 172 6 198 25
l29 21 -44 8 c-40 8 -286 68 -335 83 -19 5 -23 1 -28 -28z"/>
<path d="M1576 1716 c-4 -22 -13 -36 -22 -36 -8 0 -31 -7 -52 -15 -29 -13 -34
-18 -22 -25 8 -5 28 -10 44 -10 l30 0 -23 -21 c-17 -16 -29 -19 -49 -14 -15 4
-21 10 -14 12 17 7 5 23 -18 23 -30 0 -77 -64 -91 -124 -11 -51 -10 -58 12
-103 19 -37 34 -53 72 -72 45 -22 48 -22 73 -6 14 9 23 23 20 30 -2 7 2 16 10
19 7 3 13 16 11 28 -2 19 4 24 33 28 32 5 35 8 38 41 2 23 -7 61 -23 100 -26
65 -23 78 17 79 40 0 52 74 14 84 -13 3 -31 8 -39 12 -10 4 -16 -5 -21 -30z"/>
<path d="M1215 1725 c-63 -13 -135 -44 -135 -56 0 -4 9 -5 19 -2 32 8 154 -15
181 -35 14 -10 29 -28 34 -39 9 -20 12 -18 38 18 31 42 77 76 118 85 54 12 52
18 -10 30 -82 16 -168 16 -245 -1z"/>
<path d="M850 1633 c-19 -1 -63 -6 -96 -9 -54 -5 -62 -8 -66 -27 -9 -52 -6
-53 140 -60 75 -4 178 -13 227 -22 50 -8 93 -15 97 -15 4 0 3 11 -3 24 -13 28
-6 68 15 89 13 13 9 15 -31 21 -46 6 -217 6 -283 -1z"/>
<path d="M1195 1595 c-29 -28 -31 -42 -9 -73 16 -24 53 -29 85 -12 28 15 26
74 -3 94 -31 22 -45 20 -73 -9z m59 -21 c20 -19 20 -19 0 -38 -12 -12 -20 -13
-35 -6 -22 12 -25 30 -7 48 16 16 23 15 42 -4z"/>
<path d="M1220 1560 c0 -5 7 -10 16 -10 8 0 12 5 9 10 -3 6 -10 10 -16 10 -5
0 -9 -4 -9 -10z"/>
<path d="M703 1503 c-13 -5 -20 -153 -7 -153 3 0 38 19 77 42 40 23 100 56
135 74 l62 31 -37 7 c-44 7 -212 7 -230 -1z"/>
<path d="M904 1436 c-215 -134 -212 -132 -223 -173 -21 -76 -6 -240 21 -231 6
2 49 64 95 138 84 135 151 228 205 286 52 56 8 47 -98 -20z"/>
<path d="M1286 1485 c-16 -12 -17 -18 -7 -43 7 -16 28 -44 47 -63 37 -35 44
-33 18 6 -9 13 -21 44 -27 69 -11 41 -13 43 -31 31z"/>
<path d="M1002 1398 c-100 -134 -185 -272 -269 -440 -73 -143 -74 -147 -58
-172 9 -13 27 -31 39 -40 41 -26 132 -47 193 -44 l58 3 6 140 c10 209 58 448
120 591 15 37 16 43 2 48 -8 3 -16 6 -18 6 -2 0 -35 -42 -73 -92z"/>
<path d="M1106 1388 c-42 -142 -50 -218 -51 -473 l0 -240 111 0 c103 0 114 2
170 30 43 22 68 43 92 79 42 63 41 86 -4 111 -19 10 -60 45 -89 77 -93 100
-135 220 -135 386 0 105 -3 112 -50 112 -15 0 -24 -17 -44 -82z"/>
<path d="M1214 1389 c19 -189 115 -361 246 -436 81 -47 119 -37 164 47 28 52
44 145 28 168 -6 9 -16 10 -41 1 -45 -16 -129 -7 -185 20 -87 43 -196 177
-196 243 0 9 -5 20 -11 24 -9 5 -10 -12 -5 -67z"/>
<path d="M1240 1447 c0 -31 55 -119 101 -162 67 -62 128 -89 191 -83 27 3 57
12 65 21 14 14 12 16 -23 26 -22 6 -48 18 -58 26 -11 8 -37 15 -58 15 -69 0
-136 47 -187 133 -24 39 -31 45 -31 24z"/>
</g>
</svg>
